<svg xmlns="http://www.w3.org/2000/svg" xmlns:xlink="http://www.w3.org/1999/xlink" viewBox="0 0 527.15 251.11"><defs><linearGradient id="linear-gradient" x1="31.04" y1="37.17" x2="106.15" y2="80.54" gradientUnits="userSpaceOnUse"><stop offset="0" stop-color="#87ac8d"/><stop offset="1" stop-color="#27aae1"/></linearGradient><linearGradient id="linear-gradient-2" x1="-16.16" y1="124.65" x2="192.1" y2="244.89" xlink:href="#linear-gradient"/><linearGradient id="linear-gradient-3" x1="414.91" y1="88.47" x2="451.66" y2="109.69" xlink:href="#linear-gradient"/><linearGradient id="linear-gradient-4" x1="306.88" y1="72.21" x2="418.17" y2="136.46" xlink:href="#linear-gradient"/><linearGradient id="linear-gradient-5" x1="217.96" y1="81.46" x2="350.49" y2="157.97" xlink:href="#linear-gradient"/><linearGradient id="linear-gradient-6" x1="150.13" y1="28.54" x2="162.37" y2="35.61" xlink:href="#linear-gradient"/><linearGradient id="linear-gradient-7" x1="159.58" y1="60" x2="172.3" y2="67.34" xlink:href="#linear-gradient"/><linearGradient id="linear-gradient-8" x1="154.15" y1="57.23" x2="205.94" y2="87.13" xlink:href="#linear-gradient"/><linearGradient id="linear-gradient-9" x1="110.03" y1="51.25" x2="131.23" y2="63.48" xlink:href="#linear-gradient"/><linearGradient id="linear-gradient-10" x1="73.34" y1="76.28" x2="127.86" y2="107.76" xlink:href="#linear-gradient"/><linearGradient id="linear-gradient-11" x1="43.84" y1="126.54" x2="89.09" y2="152.66" xlink:href="#linear-gradient"/><linearGradient id="linear-gradient-12" x1="104.49" y1="145.99" x2="107.83" y2="147.91" xlink:href="#linear-gradient"/><linearGradient id="linear-gradient-13" x1="97.48" y1="149.47" x2="99.72" y2="150.76" xlink:href="#linear-gradient"/><linearGradient id="linear-gradient-14" x1="111.79" y1="142.54" x2="115.66" y2="144.78" xlink:href="#linear-gradient"/><linearGradient id="linear-gradient-15" x1="171.53" y1="151.69" x2="215.96" y2="177.34" xlink:href="#linear-gradient"/><linearGradient id="linear-gradient-16" x1="227.27" y1="161.42" x2="234.93" y2="165.85" xlink:href="#linear-gradient"/><linearGradient id="linear-gradient-17" x1="228.28" y1="169.37" x2="234.07" y2="172.72" xlink:href="#linear-gradient"/><linearGradient id="linear-gradient-18" x1="226.75" y1="175.31" x2="232.8" y2="178.8" xlink:href="#linear-gradient"/><linearGradient id="linear-gradient-19" x1="165.6" y1="186.77" x2="205.25" y2="209.67" xlink:href="#linear-gradient"/><linearGradient id="linear-gradient-20" x1="206.45" y1="126" x2="467.22" y2="276.55" xlink:href="#linear-gradient"/></defs><title>darkbg-logo</title><g id="Board_3" data-name="Board 3"><path d="M51.26,32.89s38.58-39.9,92-16.58c-.88-.38-2-2-2.69-2.69A44.18,44.18,0,0,0,132,7.74C121,1.82,108.26.19,96,1.33,77.32,3.07,58.35,9.65,44.68,22.84A113.76,113.76,0,0,0,19.33,58.71a107.57,107.57,0,0,0-8,54.86S17.49,62.73,51.26,32.89Z" fill="url(#linear-gradient)"/><path d="M56.25,204.22C-4.63,154.05,6.67,85.11,6.67,85.11-14.75,156.4,43.05,208.62,43.05,208.62c80.67,68.5,164.58,9.38,164.58,9.38C115.8,257.46,56.25,204.22,56.25,204.22Z" fill="url(#linear-gradient-2)"/><path d="M403.3,108.58c41.66,22,59.85-19.07,59.85-19.07C434,122.51,403.3,108.58,403.3,108.58Z" fill="url(#linear-gradient-3)"/><path d="M330.84,76.31s-26.7,9.29-48.7,38.75c0,0,28.6-28.19,53.39-32.88a89.25,89.25,0,0,1,48.12,7.33s44,21.71,59.26,4.11c0,0-16.14,16.57-58.68-10.86C384.23,82.76,359.44,67.8,330.84,76.31Z" fill="url(#linear-gradient-4)"/><path d="M203.22,149a255.1,255.1,0,0,0,54.41-32c15.68-12.16,30.95-24.44,48-34.7C314.9,76.8,323.3,72,334.06,70.52a87.13,87.13,0,0,1,29.6,1.26c9.95,2,21.65,5.23,30.25,11-16-10.71-34.77-17.6-54.19-17.27-37,.63-62.55,26.93-89.25,48.63-12,9.75-24.87,17.57-37.8,25.82-11.83,7.55-24.19,14.74-38.26,16.95C184.19,157.09,194.37,152.88,203.22,149Z" fill="url(#linear-gradient-5)"/><path d="M151.93,33.56c.39-1.68,1-3.77,2.57-4.76,4-2.58,8,1.84,8.68,5.41a11.7,11.7,0,0,1,.47-2.31,7.3,7.3,0,0,0-.89-4.74c-2.24-3.46-7.66-3.57-10.68-1.12-3.83,3.1-2.54,8.72-.78,12.57C150.82,37.57,151.67,34.66,151.93,33.56Z" fill="url(#linear-gradient-6)"/><path d="M162.29,66.39c1.57,1.53,4.06,1.88,6.15,2,.43,0,3.52.19,3.56-.56.1-2.18-.4-4.85-2-6.43a9.4,9.4,0,0,0-10.18-1.82C160.09,61.81,160.59,64.73,162.29,66.39Z" fill="url(#linear-gradient-7)"/><path d="M181,45.58c2.8,16.66,4.78,26.07,4.78,26.07,4,15,10.4,18.59,10.4,18.59-.06,4-3.36,8.53-7.54,11.09-4.71,2.89-11.14,3.09-16.6,3.54,16.41,4,23.37-2,23.37-2,6.21-3.85,7.37-15.29,7.37-15.29-5.67-4-10.12-18.59-10.12-18.59-5-22-7-24.75-7-24.75-5.06-15.18-16.84-12.32-16.84-12.32C179.32,33.75,181,45.58,181,45.58Z" fill="url(#linear-gradient-8)"/><path d="M119.23,37.69a33.93,33.93,0,0,0-4.87,6.08c-7,11.42-2.83,28.15,7.2,36.46A8.71,8.71,0,0,1,120.18,78a46.15,46.15,0,0,1-2.87-5.92c-4.57-11.49-1.11-25.86,4.25-36.52C121.19,36.3,119.81,37.1,119.23,37.69Z" fill="url(#linear-gradient-9)"/><path d="M113.16,133.22c3.27-5.73-6.5-12.67-10.42-15.24-6.2-4.07-12.93-8.32-17.92-13.86-.24-.27-.48-.54-.7-.82-3.57-4.44-6.73-8.06-7.13-14.16a29.79,29.79,0,0,1,6-19.62,38.51,38.51,0,0,1,6.87-6.87C92.3,60.7,96,57.7,99.23,57.28c0,0-16.43,2.16-23.62,15.07-3.5,6.29-6,14-4.34,21.21,1.58,6.7,6.93,13.2,12.45,17.11a204.45,204.45,0,0,0,17.36,10.82c2.67,1.52,5.63,2.79,7.84,4.93C110,127.44,114.23,131.36,113.16,133.22Z" fill="url(#linear-gradient-10)"/><path d="M80.74,133.22c-5.72-1.14-10.58,2.1-15.44,4.48a24.27,24.27,0,0,1-17.52,2,30.34,30.34,0,0,1-6.55-2.82c-.49-.28-2.2-1-2.44-1.56,2.7,6.64,9.6,10.59,16.53,11.45a23.76,23.76,0,0,0,12.48-1.88c3.63-1.61,6.6-4.94,10.67-5.45a14.45,14.45,0,0,1,4.1.13c4.77.79,7.61,3.35,9.7,7.63-.38-.78-.28-2.4-.52-3.34a24.9,24.9,0,0,0-1.33-3.93C88.62,136,84.82,134.09,80.74,133.22Z" fill="url(#linear-gradient-11)"/><path d="M103,151.12s7.81-.48,4-9.61l-2.3,4.62Z" fill="url(#linear-gradient-12)"/><path d="M96.22,153s5.46.07,3.08-6.64l-1.65,3.16Z" fill="url(#linear-gradient-13)"/><path d="M115.14,136.74l-2.75,6-1.72,6.84S118.92,146.64,115.14,136.74Z" fill="url(#linear-gradient-14)"/><path d="M216.13,154.64a32.47,32.47,0,0,0-16.87,2.26c-4.4,2-8.67,4.87-13,7.13-4.66,2.44-8.81,5.49-14.19,6.24a27,27,0,0,1-7.51-.16c-.7-.1-2.76-.13-3.31-.66,4.63,4.49,11.24,3.73,17,2.53,6.72-1.41,12.89-4.44,18.74-7.94,3.12-1.87,6-4,9.41-5.21a25.06,25.06,0,0,1,11.29-1.3,37.41,37.41,0,0,1,5.81,1.36c.59.18,2.19.4,2.63.88C222.73,156,216.13,154.64,216.13,154.64Z" fill="url(#linear-gradient-15)"/><path d="M226.69,162.41l7.56,4.62S234.4,160.17,226.69,162.41Z" fill="url(#linear-gradient-16)"/><path d="M227.57,170.59l6.39,2.32S233.52,167.62,227.57,170.59Z" fill="url(#linear-gradient-17)"/><path d="M226.11,176.42l6.16,3.3S232.23,173.45,226.11,176.42Z" fill="url(#linear-gradient-18)"/><path d="M150.72,218.32a38.62,38.62,0,0,0,8.1-.64c8-1.49,14-5.88,20.09-11a93.45,93.45,0,0,0,7.67-7.09c3.7-3.88,7-8.16,10.7-12,7-7.15,15.88-11.8,26-9.23a19.52,19.52,0,0,1-2.5-1.34,25,25,0,0,0-7.12-1.77c-5.33-.68-11.29,2.25-15.65,5.1A69.59,69.59,0,0,0,185.92,191c-10.48,11-20.66,24.35-36.69,26.89-.57.09-1.14.16-1.71.22A29.07,29.07,0,0,1,150.72,218.32Z" fill="url(#linear-gradient-19)"/><path d="M520.36,177.22c-9.79,13.83-27.68,28.86-35.31,33.16-7.87,4.05-11.45-2.63-7.64-13.36a132.62,132.62,0,0,1,21.48-35.55c8.34-9.54,14.07-17.65-.24-16.94-4.29.22-8.57.24-12.85.12-2.15-.06-4.29-.16-6.44-.27-1.9-.1-6.32-.72-6.32-.72,1.56-4,10.39-23.06,10.39-23.06-6.12,2.76-11.63,5.64-16.52,10.37-3.58,3.48-7.36,7.73-8.82,12.61-.94,2.82.21,4.94,3.68,5.45-11.91,19.87-21.08,31.9-26.87,38.67a105,105,0,0,1-14.46,13.15,81.34,81.34,0,0,1-16.21,9c-15.51,6.21-33.88,6-27.91-14.07,5.24-17.42,25.76-37.22,39.84-43.66,3.34-1.67,11.92-5.25,12.16,1.43.48,5.25-6.68,12.41-10.73,15.51-8.83,7.15-22.19,14.79-29.82,15.5-3.58.24-1.91,3.58,1.67,3.34,10.73-1,33.4-10,42-22.66,4.54-6.68,6-18.85-3.81-22.19-14.56-4.85-41.74,14.93-55.23,31.2a2.11,2.11,0,0,0-.36.37c-.23.33-.48.66-.73,1-.41.56-.84,1.11-1.27,1.67-10.26,13.05-26.39,26.48-33.54,30.5-7.87,4.06-12.64-1.43-11-11.69.72-7.63,7.16-20.28,14.32-34.59.71-2.15,3.58-6.2,6.68-11.93,11.21-1.19,23.38-2.86,27-4,10-2.39,5-4.06,2.14-4.06-9.06-.24-15,1-22.42,1.67l-3.1.24,11.45-20c1.43-2.86,6.06-10.94,7.25-13.33.16-.3-1.5,1-2,1.48-2,1.8-4,3.69-6,5.59-4.67,4.66-9.21,9.45-13.69,14.3q-2.55,2.76-5.07,5.55c-.84.94-1.68,1.87-2.51,2.81-.53.59-1.19,1.73-2.1,1.73-.47,0-.71,0-.95.48-4.53.24-10.74.24-12.64,4.29-1.44,3.1,1,5.25,3.33,5.25a26.3,26.3,0,0,0,5.49-.48c-3.1,5.73-5.25,9.55-5.25,10-3.49,5.36-9.73,13.92-17.8,23.87-9.82,10.72-21.95,20.55-27.89,23.89-7.87,4.05-12.64-1.43-11-11.69.72-7.64,7.16-20.28,14.32-34.59.71-2.15,3.58-6.21,6.68-11.93,11.21-1.19,23.38-2.86,27-4.06,10-2.38,5-4,2.14-4-9.06-.24-15,.95-22.42,1.67l-3.1.24,11.45-20c1.43-2.87,6.06-10.94,7.25-13.33.16-.31-1.5,1-2,1.48-2,1.79-4,3.68-6,5.58-4.67,4.67-9.21,9.46-13.69,14.3-1.7,1.84-3.39,3.7-5.07,5.56l-2.51,2.8c-.53.6-1.19,1.74-2.1,1.74-.47,0-.71,0-.95.47-4.53.24-10.74.24-12.64,4.3-1.44,3.1.95,5.25,3.34,5.25a28.62,28.62,0,0,0,4.17-.26q-7.36,9.19-14.59,18.48-4.92,6.35-9.78,12.72C202.49,249.25,134.87,250,134.87,250,200.59,256,247,208.71,260.51,193c-1.74,6-2.51,11.26-1.45,14.29,4.77,14.31,22.42,8.59,30.05,2.86,10.19-7.34,22.29-19.89,28.43-28.6,1.36-1.85,2.4-3.34,3.43-4.6-5,11-9.06,23.85-7.15,29.34,4.77,14.31,22.42,8.59,30.05,2.86a137.39,137.39,0,0,0,19.31-17.53c-5.65,24.44,21.85,31.91,44.15,22.94a83.66,83.66,0,0,0,17-9.56h0l.17-.14c2.35-1.71,4.63-3.54,6.81-5.48h0l.31-.3a91.58,91.58,0,0,0,11.05-11.75h0a306,306,0,0,0,22.5-31.14c1.6-2.31,3.21-4.62,4.83-6.91a56.39,56.39,0,0,1,10.73,1.19c16.46,2.62,5.49,13.12,1.91,17.17-8.82,9.07-24.57,26.49-20.28,42,1.67,6.68,6.21,8.83,11.46,8.83,6.68,0,14.31-3.34,18.6-6.68,11.93-8.59,26.48-24.33,31-32.68C524.65,177,521.55,175.55,520.36,177.22Z" fill="url(#linear-gradient-20)"/><path d="M242.74,243c-4.92,0-8.09-3.33-8.09-8.33,0-3.38,1.35-6.12,3.72-7.65a15.94,15.94,0,0,1,4.85-1.87,11.51,11.51,0,0,1,5.09,1.27l-1.06,3a8,8,0,0,1-1,0l-3.14-1.51h-.22c-2.81,0-4.58,2.23-4.58,6,0,3.94,1.92,6.15,5.3,6.15a8.87,8.87,0,0,0,4.22-1.13l.87,2.35A11.43,11.43,0,0,1,242.74,243Z" fill="#e0e0e0"/><path d="M253.64,239c-.56,1.77-.91,3-1.06,3.55h-3.29c0-.1,0-1.49,0-1.59,1.56-3.45,4.06-9.6,6.27-15.29l3.29-.09c2.18,5.78,4.63,11.93,6.19,15.38,0,.1,0,1.49,0,1.59h-3.51c-.14-.53-.55-1.8-1.12-3.58C259.69,239,259,239,258,239,255.94,239,254.67,239,253.64,239Zm5.9-2.6c-.72-2.18-1.63-4.82-2.64-7.73-.93,2.93-1.78,5.55-2.47,7.76H256C257.38,236.46,258.58,236.46,259.54,236.43Z" fill="#e0e0e0"/><path d="M273.2,242.84c-1.23,0-4.23-.26-5.62-.26h-.48c.14-1.66.24-4.83.24-7.88v-1.15c0-3.12-.1-6.26-.24-7.89h.48c2,0,4.92-.29,5.19-.29,3.67,0,6.14,1.68,6.14,4.29a4,4,0,0,1-2.67,3.65c2.28.39,3.68,1.83,3.68,3.94a4.67,4.67,0,0,1-2.76,4.2A14.7,14.7,0,0,1,273.2,242.84Zm2.35-12.48c0-1.63-1.18-2.54-3.29-2.54-.38,0-1,0-1.58.07-.05,1.44-.1,3.19-.1,4.92.65,0,1.46,0,2.14,0C274.49,232.83,275.55,231.92,275.55,230.36Zm1,7.32c0-1.68-1.35-2.61-3.67-2.61-.63,0-1.49,0-2.26,0,0,1.83.05,3.6.1,5.07.91.07,1.89.12,2.44.12C275.24,240.3,276.51,239.34,276.51,237.68Z" fill="#e0e0e0"/><path d="M282.46,242.58c.14-1.66.24-4.83.24-7.88v-1.15c0-3.12-.1-6.26-.24-7.89h3.86c-.14,1.65-.24,4.82-.24,7.87v1.15c0,3.12.1,6.27.24,7.9Z" fill="#e0e0e0"/><path d="M300.22,242.6c-.48-1-3.07-5.37-7.22-12.34v4.42c0,3.1.09,6.27.23,7.9H290c.14-1.66.24-4.83.24-7.88v-1.15c0-3.12-.1-6.26-.24-7.89h4.15c.6,1.29,3.22,5.76,7.2,12.48v-4.59c0-3.12-.1-6.26-.24-7.89h3.29c-.15,1.65-.24,4.82-.24,7.87v1.15c0,3.1.09,6.27.24,7.9Z" fill="#e0e0e0"/><path d="M318.48,243c-3.55,0-5.93-1.75-5.93-4.39,0-1.82,1.16-3.24,3.39-4.15-1.37-1.49-1.85-2.52-1.85-3.72a4,4,0,0,1,1.82-3.41,8.38,8.38,0,0,1,3.17-1.32c2.84,0,4.73,1.63,4.73,4.06,0,2-1.25,3.5-3.62,4.53.24.22.48.46.77.7.76.67,1.6,1.39,2.44,2.11a20,20,0,0,0,1.78-4h2.54a10.44,10.44,0,0,1,0,1.37,41.74,41.74,0,0,1-2.61,4c1,.82,1.89,1.59,2.71,2.23,0,.08,0,1.37,0,1.47l-3,.07c-.52-.48-1.1-1-1.72-1.58a3.75,3.75,0,0,1-.6.45A13.08,13.08,0,0,1,318.48,243Zm3.08-3.36c-1.06-1-2.12-1.89-3.05-2.71-.46-.41-.87-.77-1.23-1.13a2.5,2.5,0,0,0-1.39,2.28,2.57,2.57,0,0,0,2.88,2.6A4.32,4.32,0,0,0,321.56,239.67Zm-2.72-6.33a2.93,2.93,0,0,0,1.83-2.72c0-1.32-.75-2.23-1.87-2.23-.94,0-1.52.7-1.52,1.92C317.28,231.3,317.62,232.09,318.84,233.34Z" fill="#e0e0e0"/><path d="M343.15,243c-4.92,0-8.08-3.33-8.08-8.33,0-3.38,1.34-6.12,3.72-7.65a15.94,15.94,0,0,1,4.85-1.87,11.5,11.5,0,0,1,5.08,1.27l-1.05,3a8.17,8.17,0,0,1-1,0l-3.14-1.51h-.22c-2.81,0-4.58,2.23-4.58,6,0,3.94,1.92,6.15,5.3,6.15a8.91,8.91,0,0,0,4.23-1.13l.86,2.35A11.41,11.41,0,0,1,343.15,243Z" fill="#e0e0e0"/><path d="M354.05,239c-.55,1.77-.91,3-1.06,3.55h-3.28a14.06,14.06,0,0,1,0-1.59c1.56-3.45,4.05-9.6,6.26-15.29l3.29-.09c2.18,5.78,4.63,11.93,6.19,15.38a14.06,14.06,0,0,1,0,1.59H362c-.15-.53-.56-1.8-1.13-3.58-.72-.05-1.37-.05-2.38-.05C356.35,239,355.08,239,354.05,239Zm5.9-2.6c-.72-2.18-1.63-4.82-2.64-7.73-.93,2.93-1.77,5.55-2.47,7.76h1.54C357.79,236.46,359,236.46,360,236.43Z" fill="#e0e0e0"/><path d="M377.79,242.6c-.48-1-3.08-5.37-7.23-12.34v4.42c0,3.1.1,6.27.24,7.9h-3.29c.15-1.66.24-4.83.24-7.88v-1.15c0-3.12-.09-6.26-.24-7.89h4.16c.6,1.29,3.21,5.76,7.2,12.48v-4.59c0-3.12-.1-6.26-.24-7.89h3.28c-.14,1.65-.24,4.82-.24,7.87v1.15c0,3.1.1,6.27.24,7.9Z" fill="#e0e0e0"/><path d="M393.12,243.06c-5.09,0-8.5-3.53-8.5-8.81a8,8,0,0,1,3.53-7.06,15.78,15.78,0,0,1,5.07-2c5.09,0,8.49,3.52,8.49,8.83a7.93,7.93,0,0,1-3.52,7A15.89,15.89,0,0,1,393.12,243.06Zm.34-2.71c2.76,0,4.49-2.16,4.49-5.84,0-4-2-6.62-5.07-6.62-2.76,0-4.49,2.16-4.49,5.83C388.39,237.71,390.41,240.35,393.46,240.35Z" fill="#e0e0e0"/><path d="M415.68,242.65c-2.23-.05-4.87-.07-6.65-.07h-4.61c.15-1.66.24-4.83.24-7.88v-1.15c0-3.12-.09-6.26-.24-7.94l3.15,0h1.8c2.3,0,4.85,0,6.1-.1l-.36,2.86a8,8,0,0,1-1.21.12,23,23,0,0,0-4.27-.34l-1.51,0c-.05,1.35-.1,2.89-.1,4.47,2.41-.05,4.42-.12,5.29-.22l-.29,2.91c-.91-.1-2.81-.17-5-.19,0,1.7.05,3.38.1,4.8.65,0,1.32,0,1.94,0a30.58,30.58,0,0,0,4.76-.31,9.56,9.56,0,0,1,1.22.1Z" fill="#e0e0e0"/><path d="M432.51,235.88c1.77,2,3.64,4,4.89,5.11a14.06,14.06,0,0,1,0,1.59l-3.53.07a70.65,70.65,0,0,0-4.41-5.74c-.48,0-1.13,0-1.88-.07,0,2.33.1,4.49.22,5.74H424c.14-1.66.24-4.83.24-7.88v-1.15c0-3.12-.1-6.26-.24-7.89h.55c1.54,0,5.52-.32,5.76-.32,3.58,0,5.95,2.12,5.95,5.28a5.25,5.25,0,0,1-2.73,4.71C433.2,235.52,432.86,235.71,432.51,235.88Zm.24-4.7a3,3,0,0,0-3.25-3.27c-.4,0-1.12.05-1.87.1-.05,1.49-.07,3.36-.07,5.52v.86c.75.05,1.44.08,1.85.08A3,3,0,0,0,432.75,231.18Z" fill="#e0e0e0"/><path d="M450.94,242.65c-2.24-.05-4.88-.07-6.65-.07h-4.61c.14-1.66.24-4.83.24-7.88v-1.15c0-3.12-.1-6.26-.24-7.94l3.14,0h1.8c2.31,0,4.85,0,6.1-.1l-.36,2.86a7.74,7.74,0,0,1-1.2.12,23.2,23.2,0,0,0-4.27-.34l-1.51,0c-.05,1.35-.1,2.89-.1,4.47,2.4-.05,4.42-.12,5.28-.22l-.29,2.91c-.91-.1-2.81-.17-5-.19,0,1.7.05,3.38.1,4.8.64,0,1.32,0,1.94,0a30.44,30.44,0,0,0,4.75-.31,9.87,9.87,0,0,1,1.23.1Z" fill="#e0e0e0"/><path d="M464,242.6c-.48-1-3.07-5.37-7.23-12.34v4.42c0,3.1.1,6.27.24,7.9H453.7c.14-1.66.24-4.83.24-7.88v-1.15c0-3.12-.1-6.26-.24-7.89h4.15c.6,1.29,3.21,5.76,7.2,12.48v-4.59c0-3.12-.1-6.26-.24-7.89h3.29c-.15,1.65-.24,4.82-.24,7.87v1.15c0,3.1.09,6.27.24,7.9Z" fill="#e0e0e0"/><path d="M475.2,242.58c.14-1.66.24-4.83.24-7.88v-1.15c0-1.89,0-3.79-.1-5.35a29.1,29.1,0,0,0-4,.34,6.7,6.7,0,0,1-1.2-.1l.09-2.88c1.13.05,3.77.1,6.31.1h1.28c2.64,0,5.18,0,6.31-.1l-.29,2.88a6.78,6.78,0,0,1-1.2.12,21.45,21.45,0,0,0-3.72-.36c-.07,1.58-.1,3.48-.1,5.33v1.15c0,3.12.1,6.27.24,7.9Z" fill="#e0e0e0"/><path d="M487.3,239c-.56,1.77-.92,3-1.06,3.55H483c0-.1,0-1.49,0-1.59,1.56-3.45,4.06-9.6,6.27-15.29l3.28-.09c2.19,5.78,4.64,11.93,6.2,15.38,0,.1,0,1.49,0,1.59h-3.51c-.14-.53-.55-1.8-1.13-3.58-.72-.05-1.36-.05-2.37-.05C489.6,239,488.33,239,487.3,239Zm5.9-2.6c-.72-2.18-1.63-4.82-2.64-7.73-.94,2.93-1.78,5.55-2.47,7.76h1.53C491,236.46,492.24,236.46,493.2,236.43Z" fill="#e0e0e0"/><path d="M511.1,242.65c-2.23-.05-4.56-.07-6.26-.07h-4.08c.14-1.66.24-4.83.24-7.88v-1.15c0-3.12-.1-6.26-.24-7.89h3.86c-.14,1.65-.24,4.82-.24,7.87v1.15c0,1.85,0,3.7.1,5.23.46,0,.89,0,1.29,0a26,26,0,0,0,4.47-.36,6.08,6.08,0,0,1,1.22.12Z" fill="#e0e0e0"/></g></svg>