<svg xmlns="http://www.w3.org/2000/svg" xmlns:xlink="http://www.w3.org/1999/xlink" viewBox="0 0 527.24 251.11"><defs><linearGradient id="linear-gradient" x1="30.57" y1="36.81" x2="105.68" y2="80.17" gradientUnits="userSpaceOnUse"><stop offset="0" stop-color="#475d4d"/><stop offset="1" stop-color="#27aae1"/></linearGradient><linearGradient id="linear-gradient-2" x1="-16.63" y1="124.29" x2="191.63" y2="244.53" xlink:href="#linear-gradient"/><linearGradient id="linear-gradient-3" x1="414.44" y1="88.11" x2="451.19" y2="109.32" xlink:href="#linear-gradient"/><linearGradient id="linear-gradient-4" x1="306.41" y1="71.85" x2="417.7" y2="136.1" xlink:href="#linear-gradient"/><linearGradient id="linear-gradient-5" x1="217.49" y1="81.1" x2="350.02" y2="157.61" xlink:href="#linear-gradient"/><linearGradient id="linear-gradient-6" x1="149.66" y1="28.18" x2="161.9" y2="35.25" xlink:href="#linear-gradient"/><linearGradient id="linear-gradient-7" x1="159.11" y1="59.64" x2="171.83" y2="66.98" xlink:href="#linear-gradient"/><linearGradient id="linear-gradient-8" x1="153.68" y1="56.87" x2="205.47" y2="86.77" xlink:href="#linear-gradient"/><linearGradient id="linear-gradient-9" x1="109.57" y1="50.88" x2="130.76" y2="63.12" xlink:href="#linear-gradient"/><linearGradient id="linear-gradient-10" x1="72.87" y1="75.92" x2="127.39" y2="107.4" xlink:href="#linear-gradient"/><linearGradient id="linear-gradient-11" x1="43.37" y1="126.17" x2="88.62" y2="152.3" xlink:href="#linear-gradient"/><linearGradient id="linear-gradient-12" x1="104.02" y1="145.62" x2="107.36" y2="147.55" xlink:href="#linear-gradient"/><linearGradient id="linear-gradient-13" x1="97.01" y1="149.11" x2="99.25" y2="150.4" xlink:href="#linear-gradient"/><linearGradient id="linear-gradient-14" x1="111.32" y1="142.18" x2="115.19" y2="144.41" xlink:href="#linear-gradient"/><linearGradient id="linear-gradient-15" x1="171.06" y1="151.33" x2="215.49" y2="176.98" xlink:href="#linear-gradient"/><linearGradient id="linear-gradient-16" x1="226.8" y1="161.06" x2="234.46" y2="165.48" xlink:href="#linear-gradient"/><linearGradient id="linear-gradient-17" x1="227.81" y1="169.01" x2="233.6" y2="172.35" xlink:href="#linear-gradient"/><linearGradient id="linear-gradient-18" x1="226.28" y1="174.95" x2="232.33" y2="178.44" xlink:href="#linear-gradient"/><linearGradient id="linear-gradient-19" x1="165.13" y1="186.41" x2="204.78" y2="209.3" xlink:href="#linear-gradient"/><linearGradient id="linear-gradient-20" x1="205.98" y1="125.63" x2="466.75" y2="276.19" xlink:href="#linear-gradient"/></defs><title>logo</title><g id="Board_1_-_Otter" data-name="Board 1 - Otter"><path d="M50.79,32.53s38.58-39.9,92-16.58c-.88-.38-2-2-2.69-2.7a44.63,44.63,0,0,0-8.53-5.88c-11-5.91-23.75-7.55-36-6.4C76.85,2.71,57.88,9.28,44.21,22.48A113.65,113.65,0,0,0,18.86,58.35a107.55,107.55,0,0,0-8,54.85S17,62.37,50.79,32.53Z" fill="url(#linear-gradient)"/><path d="M55.78,203.85C-5.1,153.69,6.2,84.75,6.2,84.75-15.22,156,42.58,208.25,42.58,208.25c80.67,68.51,164.58,9.39,164.58,9.39C115.33,257.1,55.78,203.85,55.78,203.85Z" fill="url(#linear-gradient-2)"/><path d="M402.83,108.22c41.66,22,59.85-19.07,59.85-19.07C433.49,122.15,402.83,108.22,402.83,108.22Z" fill="url(#linear-gradient-3)"/><path d="M330.37,76s-26.7,9.29-48.7,38.75c0,0,28.6-28.19,53.39-32.89a89.31,89.31,0,0,1,48.12,7.34s44,21.71,59.26,4.1c0,0-16.14,16.58-58.68-10.85C383.76,82.4,359,67.44,330.37,76Z" fill="url(#linear-gradient-4)"/><path d="M202.75,148.66a255.52,255.52,0,0,0,54.41-31.95c15.68-12.16,30.95-24.44,48-34.7,9.27-5.58,17.66-10.34,28.42-11.85a87.13,87.13,0,0,1,29.6,1.26c9.95,2,21.65,5.22,30.25,11-16-10.72-34.77-17.61-54.19-17.27-36.95.63-62.55,26.92-89.25,48.63-12,9.75-24.87,17.57-37.8,25.82-11.83,7.55-24.19,14.74-38.26,16.95C183.72,156.73,193.9,152.51,202.75,148.66Z" fill="url(#linear-gradient-5)"/><path d="M151.46,33.2c.39-1.69,1-3.77,2.57-4.77,4-2.57,8,1.85,8.68,5.42a11.56,11.56,0,0,1,.47-2.31,7.36,7.36,0,0,0-.88-4.74c-2.25-3.47-7.67-3.57-10.69-1.12-3.83,3.1-2.54,8.72-.78,12.57C150.35,37.21,151.2,34.3,151.46,33.2Z" fill="url(#linear-gradient-6)"/><path d="M161.82,66c1.57,1.53,4.06,1.87,6.15,2,.44,0,3.53.19,3.56-.55.1-2.19-.4-4.86-2-6.44a9.41,9.41,0,0,0-10.18-1.81C159.62,61.45,160.12,64.37,161.82,66Z" fill="url(#linear-gradient-7)"/><path d="M180.5,45.22c2.8,16.66,4.78,26.07,4.78,26.07,4,15,10.4,18.59,10.4,18.59-.06,4-3.36,8.53-7.54,11.09-4.71,2.89-11.14,3.08-16.6,3.54,16.41,4,23.37-2,23.37-2,6.21-3.85,7.37-15.29,7.37-15.29-5.67-4-10.12-18.59-10.12-18.59-5-22-7-24.75-7-24.75-5.06-15.19-16.83-12.33-16.83-12.33C178.85,33.39,180.5,45.22,180.5,45.22Z" fill="url(#linear-gradient-8)"/><path d="M118.76,37.32a34,34,0,0,0-4.87,6.09c-7,11.42-2.83,28.15,7.2,36.46a8.71,8.71,0,0,1-1.38-2.22,46.28,46.28,0,0,1-2.87-5.93c-4.57-11.49-1.11-25.86,4.25-36.52C120.72,35.94,119.34,36.74,118.76,37.32Z" fill="url(#linear-gradient-9)"/><path d="M112.69,132.86c3.27-5.73-6.5-12.68-10.42-15.25-6.2-4.06-12.93-8.32-17.92-13.86-.24-.26-.48-.53-.7-.81-3.57-4.44-6.72-8.07-7.13-14.17a29.78,29.78,0,0,1,6-19.61,38.51,38.51,0,0,1,6.87-6.87c2.44-1.95,6.18-4.95,9.37-5.37,0,0-16.43,2.16-23.62,15.07-3.5,6.29-6,14-4.34,21.21,1.58,6.7,6.94,13.19,12.45,17.11s11.43,7.45,17.36,10.82c2.67,1.52,5.63,2.79,7.84,4.92C109.51,127.08,113.76,131,112.69,132.86Z" fill="url(#linear-gradient-10)"/><path d="M80.27,132.86c-5.72-1.15-10.58,2.1-15.44,4.48a24.27,24.27,0,0,1-17.52,2,30.55,30.55,0,0,1-6.54-2.82c-.5-.28-2.21-1-2.45-1.57,2.7,6.65,9.6,10.6,16.53,11.45a23.65,23.65,0,0,0,12.48-1.87C71,142.88,73.93,139.55,78,139a14.17,14.17,0,0,1,4.11.13c4.76.79,7.6,3.35,9.69,7.62-.38-.78-.27-2.4-.52-3.33A23.61,23.61,0,0,0,90,139.53C88.15,135.6,84.35,133.73,80.27,132.86Z" fill="url(#linear-gradient-11)"/><path d="M102.57,150.75s7.81-.47,4-9.6l-2.3,4.62Z" fill="url(#linear-gradient-12)"/><path d="M95.75,152.59s5.46.07,3.08-6.64l-1.65,3.15Z" fill="url(#linear-gradient-13)"/><path d="M114.67,136.38l-2.75,6.05-1.72,6.84S118.45,146.28,114.67,136.38Z" fill="url(#linear-gradient-14)"/><path d="M215.66,154.27a32.46,32.46,0,0,0-16.86,2.27c-4.41,2.05-8.68,4.87-13,7.12-4.66,2.45-8.81,5.5-14.19,6.25a27,27,0,0,1-7.51-.16c-.7-.1-2.76-.13-3.31-.66,4.63,4.49,11.24,3.73,17,2.53,6.72-1.41,12.89-4.44,18.74-8,3.12-1.86,6-4,9.41-5.21a24.92,24.92,0,0,1,11.29-1.29,37.41,37.41,0,0,1,5.81,1.36c.59.18,2.19.4,2.63.88C222.26,155.67,215.66,154.27,215.66,154.27Z" fill="url(#linear-gradient-15)"/><path d="M226.23,162.05l7.55,4.62S233.93,159.81,226.23,162.05Z" fill="url(#linear-gradient-16)"/><path d="M227.11,170.23l6.38,2.31S233.05,167.26,227.11,170.23Z" fill="url(#linear-gradient-17)"/><path d="M225.64,176.06l6.16,3.3S231.76,173.09,225.64,176.06Z" fill="url(#linear-gradient-18)"/><path d="M150.25,218a39.3,39.3,0,0,0,8.1-.64c8-1.49,14-5.88,20.09-11a91.85,91.85,0,0,0,7.67-7.1c3.7-3.87,7-8.15,10.7-12,7-7.15,15.88-11.8,26-9.23a18.42,18.42,0,0,1-2.5-1.35,24.94,24.94,0,0,0-7.12-1.76c-5.33-.68-11.29,2.24-15.65,5.1a69.54,69.54,0,0,0-12.13,10.62c-10.48,11-20.66,24.35-36.69,26.89-.57.09-1.14.16-1.71.22A26.66,26.66,0,0,1,150.25,218Z" fill="url(#linear-gradient-19)"/><path d="M519.89,176.86c-9.78,13.83-27.68,28.86-35.31,33.16-7.87,4-11.45-2.63-7.64-13.36a132.47,132.47,0,0,1,21.48-35.55c8.35-9.54,14.07-17.65-.24-16.94-4.28.22-8.57.24-12.85.12-2.15-.07-4.29-.16-6.44-.27-1.9-.1-6.32-.72-6.32-.72,1.56-4.06,10.4-23.07,10.4-23.07-6.13,2.77-11.64,5.64-16.53,10.38-3.58,3.47-7.36,7.73-8.82,12.61-.94,2.82.21,4.94,3.68,5.45-11.91,19.87-21.08,31.9-26.87,38.67A105,105,0,0,1,420,200.49a81.34,81.34,0,0,1-16.21,9c-15.51,6.2-33.88,6-27.91-14.08,5.24-17.41,25.76-37.21,39.84-43.65,3.34-1.67,11.92-5.25,12.16,1.43.48,5.25-6.68,12.4-10.73,15.51-8.83,7.15-22.19,14.79-29.82,15.5-3.58.24-1.91,3.58,1.67,3.34,10.73-.95,33.4-10,42-22.66,4.54-6.68,6-18.85-3.81-22.19-14.56-4.85-41.74,14.92-55.23,31.2a1.78,1.78,0,0,0-.35.37l-.74,1c-.41.55-.84,1.11-1.27,1.67-10.26,13.05-26.39,26.48-33.54,30.5-7.87,4.05-12.64-1.43-11-11.69.71-7.63,7.15-20.28,14.31-34.59.71-2.15,3.58-6.21,6.68-11.93,11.21-1.19,23.38-2.86,27-4.06,10-2.38,5-4.05,2.14-4.05-9.06-.24-15,1-22.42,1.67l-3.1.24,11.45-20c1.43-2.87,6.06-10.94,7.25-13.33.16-.3-1.5,1-2,1.48-2.05,1.79-4,3.68-6,5.58-4.67,4.67-9.21,9.46-13.69,14.3q-2.55,2.78-5.07,5.56c-.84.93-1.68,1.87-2.51,2.81-.53.59-1.19,1.73-2.1,1.73-.47,0-.71,0-.95.48-4.53.23-10.74.23-12.64,4.29-1.44,3.1.95,5.25,3.34,5.25a26.27,26.27,0,0,0,5.48-.48c-3.1,5.73-5.25,9.54-5.25,10-3.49,5.36-9.73,13.91-17.8,23.87-9.82,10.71-21.95,20.55-27.89,23.89-7.87,4.05-12.64-1.44-11-11.69.71-7.64,7.15-20.28,14.31-34.6.71-2.14,3.58-6.2,6.68-11.92,11.21-1.2,23.38-2.87,27-4.06,10-2.39,5-4.06,2.14-4.06-9.06-.23-15,1-22.42,1.67l-3.1.24,11.45-20c1.43-2.86,6.06-10.94,7.26-13.32.15-.31-1.51,1-2,1.48-2.05,1.79-4,3.68-6,5.58-4.66,4.67-9.21,9.46-13.69,14.3q-2.55,2.76-5.07,5.56c-.84.93-1.68,1.86-2.51,2.8-.53.6-1.19,1.73-2.1,1.73-.47,0-.71,0-.95.48-4.53.24-10.74.24-12.64,4.3-1.44,3.1.95,5.24,3.34,5.24a28.34,28.34,0,0,0,4.17-.25q-7.37,9.18-14.59,18.48-4.92,6.33-9.78,12.71C202,248.89,134.4,249.62,134.4,249.62c65.72,6,112.17-41.27,125.64-57-1.74,6-2.51,11.26-1.45,14.28,4.77,14.32,22.42,8.59,30.06,2.87,10.18-7.34,22.28-19.89,28.42-28.6,1.36-1.85,2.4-3.34,3.43-4.61-5,11-9.06,23.86-7.15,29.35,4.77,14.31,22.42,8.59,30.06,2.86a137.33,137.33,0,0,0,19.3-17.53c-5.65,24.44,21.85,31.9,44.15,22.94a83.7,83.7,0,0,0,17-9.57h0l.17-.13c2.35-1.71,4.63-3.54,6.81-5.48h0l.31-.29A91.58,91.58,0,0,0,442.2,187h0l0,0a306.13,306.13,0,0,0,22.5-31.13q2.4-3.47,4.83-6.92a56.42,56.42,0,0,1,10.73,1.2c16.47,2.62,5.49,13.12,1.91,17.17-8.82,9.07-24.57,26.48-20.28,42,1.68,6.68,6.21,8.83,11.46,8.83,6.68,0,14.31-3.34,18.6-6.68,11.93-8.59,26.49-24.34,31-32.69C524.18,176.62,521.08,175.19,519.89,176.86Z" fill="url(#linear-gradient-20)"/></g><g id="Board_1_-_Text" data-name="Board 1 - Text"><path d="M242.27,242.67c-4.92,0-8.09-3.33-8.09-8.33,0-3.38,1.35-6.12,3.72-7.65a15.78,15.78,0,0,1,4.85-1.88,11.39,11.39,0,0,1,5.09,1.28L246.78,229a8,8,0,0,1-1,0l-3.14-1.51h-.22c-2.81,0-4.58,2.23-4.58,6s1.92,6.15,5.3,6.15a8.87,8.87,0,0,0,4.22-1.13l.87,2.35A11.43,11.43,0,0,1,242.27,242.67Z" fill="#333"/><path d="M253.17,238.66c-.56,1.78-.91,3-1.06,3.56h-3.29c0-.1,0-1.49,0-1.59,1.56-3.45,4.06-9.6,6.27-15.29l3.29-.09c2.18,5.78,4.63,11.93,6.19,15.38,0,.1,0,1.49,0,1.59h-3.51c-.14-.53-.55-1.8-1.12-3.58-.72,0-1.37,0-2.38,0C255.47,238.59,254.2,238.61,253.17,238.66Zm5.9-2.59c-.72-2.18-1.63-4.82-2.64-7.73-.93,2.93-1.78,5.55-2.47,7.76h1.54C256.91,236.1,258.11,236.1,259.07,236.07Z" fill="#333"/><path d="M272.73,242.48c-1.23,0-4.23-.26-5.62-.26h-.48c.15-1.66.24-4.83.24-7.88v-1.15c0-3.12-.09-6.26-.24-7.9h.48c2,0,4.92-.28,5.19-.28,3.67,0,6.14,1.68,6.14,4.29a4,4,0,0,1-2.66,3.65c2.28.38,3.67,1.83,3.67,3.94a4.68,4.68,0,0,1-2.76,4.2A15.08,15.08,0,0,1,272.73,242.48ZM275.08,230c0-1.63-1.18-2.55-3.29-2.55-.38,0-1,0-1.58.08,0,1.44-.1,3.19-.1,4.92.65,0,1.46,0,2.14,0C274,232.47,275.08,231.56,275.08,230Zm1,7.32c0-1.68-1.35-2.62-3.67-2.62-.63,0-1.49,0-2.26.05,0,1.82.05,3.6.1,5.07.91.07,1.89.12,2.44.12C274.77,239.94,276,239,276,237.32Z" fill="#333"/><path d="M282,242.22c.14-1.66.24-4.83.24-7.88v-1.15c0-3.12-.1-6.26-.24-7.9h3.86c-.14,1.66-.24,4.83-.24,7.88v1.15c0,3.12.1,6.26.24,7.9Z" fill="#333"/><path d="M299.75,242.24c-.48-1-3.07-5.38-7.22-12.34v4.42c0,3.09.09,6.26.24,7.9h-3.29c.14-1.66.24-4.83.24-7.88v-1.15c0-3.12-.1-6.26-.24-7.9h4.15c.6,1.3,3.22,5.76,7.2,12.49v-4.59c0-3.12-.1-6.26-.24-7.9h3.29c-.14,1.66-.24,4.83-.24,7.88v1.15c0,3.09.1,6.26.24,7.9Z" fill="#333"/><path d="M318,242.67c-3.55,0-5.93-1.75-5.93-4.39,0-1.83,1.16-3.24,3.39-4.15-1.37-1.49-1.85-2.52-1.85-3.72a4,4,0,0,1,1.82-3.41,8.38,8.38,0,0,1,3.17-1.32c2.84,0,4.73,1.63,4.73,4,0,2-1.25,3.51-3.62,4.54.24.22.48.46.77.7.76.67,1.6,1.39,2.44,2.11a20.58,20.58,0,0,0,1.78-4h2.54a10.44,10.44,0,0,1,0,1.37,41.74,41.74,0,0,1-2.61,4c1,.82,1.89,1.58,2.71,2.23,0,.07,0,1.37,0,1.47l-3,.07c-.52-.48-1.1-1-1.72-1.59a3.32,3.32,0,0,1-.6.46A13.35,13.35,0,0,1,318,242.67Zm3.08-3.36c-1.06-1-2.12-1.9-3-2.71-.46-.41-.87-.77-1.23-1.13a2.5,2.5,0,0,0-1.39,2.28,2.56,2.56,0,0,0,2.88,2.59A4.31,4.31,0,0,0,321.09,239.31ZM318.37,233a2.89,2.89,0,0,0,1.83-2.71c0-1.32-.75-2.23-1.87-2.23-.94,0-1.52.7-1.52,1.92C316.81,230.93,317.15,231.73,318.37,233Z" fill="#333"/><path d="M342.69,242.67c-4.93,0-8.09-3.33-8.09-8.33,0-3.38,1.34-6.12,3.72-7.65a15.78,15.78,0,0,1,4.85-1.88,11.35,11.35,0,0,1,5.08,1.28L347.2,229a8.17,8.17,0,0,1-1,0l-3.14-1.51h-.22c-2.81,0-4.58,2.23-4.58,6s1.92,6.15,5.3,6.15a8.91,8.91,0,0,0,4.23-1.13l.86,2.35A11.4,11.4,0,0,1,342.69,242.67Z" fill="#333"/><path d="M353.58,238.66c-.55,1.78-.91,3-1.06,3.56h-3.28a14.06,14.06,0,0,1,0-1.59c1.56-3.45,4.05-9.6,6.26-15.29l3.29-.09c2.18,5.78,4.63,11.93,6.19,15.38a14.06,14.06,0,0,1,0,1.59h-3.5c-.15-.53-.56-1.8-1.13-3.58-.72,0-1.37,0-2.38,0C355.88,238.59,354.61,238.61,353.58,238.66Zm5.91-2.59c-.73-2.18-1.64-4.82-2.65-7.73-.93,2.93-1.77,5.55-2.47,7.76h1.54C357.32,236.1,358.53,236.1,359.49,236.07Z" fill="#333"/><path d="M377.32,242.24c-.48-1-3.08-5.38-7.23-12.34v4.42c0,3.09.1,6.26.24,7.9H367c.15-1.66.24-4.83.24-7.88v-1.15c0-3.12-.09-6.26-.24-7.9h4.16c.6,1.3,3.21,5.76,7.2,12.49v-4.59c0-3.12-.1-6.26-.24-7.9h3.28c-.14,1.66-.24,4.83-.24,7.88v1.15c0,3.09.1,6.26.24,7.9Z" fill="#333"/><path d="M392.65,242.7c-5.09,0-8.5-3.53-8.5-8.81a8,8,0,0,1,3.53-7.06,15.89,15.89,0,0,1,5.07-2c5.09,0,8.49,3.53,8.49,8.84a8,8,0,0,1-3.52,7A15.89,15.89,0,0,1,392.65,242.7ZM393,240c2.76,0,4.49-2.16,4.49-5.83,0-4-2-6.62-5.07-6.62-2.76,0-4.49,2.16-4.49,5.83C387.92,237.34,389.94,240,393,240Z" fill="#333"/><path d="M415.21,242.29c-2.23,0-4.87-.07-6.65-.07H404c.15-1.66.24-4.83.24-7.88v-1.15c0-3.12-.09-6.26-.24-7.94l3.15,0h1.8c2.3,0,4.85,0,6.1-.09l-.36,2.85a6,6,0,0,1-1.2.12,24.33,24.33,0,0,0-4.28-.33l-1.51,0c0,1.35-.09,2.88-.09,4.47,2.4-.05,4.41-.12,5.28-.22l-.29,2.91c-.91-.1-2.81-.17-5-.2,0,1.71,0,3.39.09,4.8.65,0,1.32,0,2,0a30.44,30.44,0,0,0,4.75-.31,9.56,9.56,0,0,1,1.22.1Z" fill="#333"/><path d="M432,235.52c1.77,2,3.64,4,4.89,5.11a14.06,14.06,0,0,1,0,1.59l-3.53.07a70.65,70.65,0,0,0-4.41-5.74c-.48,0-1.13,0-1.88-.07,0,2.33.1,4.49.22,5.74h-3.79c.14-1.66.24-4.83.24-7.88v-1.15c0-3.12-.1-6.26-.24-7.9h.55c1.54,0,5.52-.31,5.76-.31,3.58,0,5.95,2.11,5.95,5.28a5.25,5.25,0,0,1-2.73,4.71C432.73,235.16,432.4,235.35,432,235.52Zm.24-4.71a3,3,0,0,0-3.25-3.26c-.4,0-1.12,0-1.87.1-.05,1.48-.07,3.36-.07,5.52V234c.75.05,1.44.07,1.85.07A3,3,0,0,0,432.28,230.81Z" fill="#333"/><path d="M450.47,242.29c-2.23,0-4.87-.07-6.65-.07h-4.61c.15-1.66.24-4.83.24-7.88v-1.15c0-3.12-.09-6.26-.24-7.94l3.15,0h1.79c2.31,0,4.85,0,6.1-.09l-.36,2.85a5.88,5.88,0,0,1-1.2.12,24.28,24.28,0,0,0-4.27-.33l-1.51,0c-.05,1.35-.1,2.88-.1,4.47,2.4-.05,4.42-.12,5.28-.22L447.8,235c-.91-.1-2.81-.17-5-.2,0,1.71.05,3.39.1,4.8.65,0,1.32,0,1.94,0a30.44,30.44,0,0,0,4.75-.31,9.87,9.87,0,0,1,1.23.1Z" fill="#333"/><path d="M463.5,242.24c-.48-1-3.07-5.38-7.22-12.34v4.42c0,3.09.09,6.26.23,7.9h-3.28c.14-1.66.24-4.83.24-7.88v-1.15c0-3.12-.1-6.26-.24-7.9h4.15c.6,1.3,3.22,5.76,7.2,12.49v-4.59c0-3.12-.1-6.26-.24-7.9h3.29c-.15,1.66-.24,4.83-.24,7.88v1.15c0,3.09.09,6.26.24,7.9Z" fill="#333"/><path d="M474.73,242.22c.14-1.66.24-4.83.24-7.88v-1.15c0-1.9,0-3.79-.1-5.35a31.22,31.22,0,0,0-4,.33,5.9,5.9,0,0,1-1.2-.09l.09-2.88c1.13.05,3.77.09,6.31.09h1.28c2.64,0,5.18,0,6.31-.09l-.29,2.88a6.69,6.69,0,0,1-1.2.12,21.45,21.45,0,0,0-3.72-.36c-.07,1.58-.1,3.48-.1,5.33v1.15c0,3.12.1,6.26.24,7.9Z" fill="#333"/><path d="M486.83,238.66c-.56,1.78-.92,3-1.06,3.56h-3.29c0-.1,0-1.49,0-1.59,1.56-3.45,4.06-9.6,6.27-15.29l3.28-.09c2.19,5.78,4.64,11.93,6.2,15.38,0,.1,0,1.49,0,1.59h-3.51c-.14-.53-.55-1.8-1.13-3.58-.72,0-1.36,0-2.37,0C489.13,238.59,487.86,238.61,486.83,238.66Zm5.9-2.59c-.72-2.18-1.63-4.82-2.64-7.73-.94,2.93-1.78,5.55-2.47,7.76h1.53C490.57,236.1,491.77,236.1,492.73,236.07Z" fill="#333"/><path d="M510.63,242.29c-2.23,0-4.56-.07-6.26-.07h-4.08c.14-1.66.24-4.83.24-7.88v-1.15c0-3.12-.1-6.26-.24-7.9h3.86c-.14,1.66-.24,4.83-.24,7.88v1.15c0,1.85,0,3.7.1,5.23.46,0,.89,0,1.3,0a26.09,26.09,0,0,0,4.46-.35,6.08,6.08,0,0,1,1.22.12Z" fill="#333"/></g></svg>